# xmcd
# Copyright (C) 1995-1998 Ti Kan
#
# Track frame offsets:
#       150
#       15960
#       32508
#       47878
#       62158
#       75025
#       90371
#       111138
#       125856
#       143098
#       159385
#       177853
#       194103
#
# Disc length: 2803 seconds
#
# Revision: 0
# Processed by: cddbd v1.4PL0 Copyright (c) Steve Scherf et al.
# Submitted via: CD-Transfer v1.0
#
DISCID=9f0af10d
DTITLE=Francine Jordi - Rudi Margreiter, Tomislav Mustac
DYEAR=01
DGENRE=
TTITLE0=Wunschlos Glücklich
TTITLE1=Tränen Gehören Zum Glück
TTITLE2=Bonjour Mon Ami
TTITLE3=Laguna D'amore
TTITLE4=Optimisten Küssen Besser
TTITLE5=Ein Wunderbarer Augenblick
TTITLE6=Insel Im Sturm Der Zeit
TTITLE7=Ein Neuer Stern Ging Auf
TTITLE8=Wie Romeo Und Julia
TTITLE9=Solange Die Träume In Uns Leben
TTITLE10=Einen Herzschlag Entfernt
TTITLE11=Hörst Du Den Wind
TTITLE12=Ciao Ciao, Liebe Freunde
EXTD=
EXTT0=
EXTT1=
EXTT2=
EXTT3=
EXTT4=
EXTT5=
EXTT6=
EXTT7=
EXTT8=
EXTT9=
EXTT10=
EXTT11=
EXTT12=
PLAYORDER=
